<svg xmlns="http://www.w3.org/2000/svg" xmlns:xlink="http://www.w3.org/1999/xlink" width="500" zoomAndPan="magnify" viewBox="0 0 375 374.999991" height="500" preserveAspectRatio="xMidYMid meet" version="1.0"><defs><g/></defs><rect x="-37.5" width="450" fill="#ffffff" y="-37.499999" height="449.999989" fill-opacity="1"/><rect x="-37.5" width="450" fill="#ffffff" y="-37.499999" height="449.999989" fill-opacity="1"/><rect x="-37.5" width="450" fill="#0cc0df" y="-37.499999" height="449.999989" fill-opacity="1"/><g fill="#ffffff" fill-opacity="0.4"><g transform="translate(14.342889, 230.412803)"><g><path d="M 48.828125 -52.269531 L 48.828125 -63.316406 C 48.828125 -63.636719 48.507812 -64.039062 47.949219 -64.039062 L 37.542969 -64.039062 C 21.613281 -64.039062 0 -59.394531 0 -32.019531 C 0 -3.601562 21.851562 0 37.542969 0 L 47.949219 0 C 48.507812 0 48.828125 -0.398438 48.828125 -0.71875 L 48.828125 -39.945312 L 24.253906 -39.945312 L 24.253906 -27.695312 L 36.582031 -27.695312 L 36.582031 -11.6875 C 22.652344 -10.964844 12.328125 -16.808594 12.328125 -32.019531 C 12.328125 -51.789062 28.816406 -52.589844 36.582031 -52.269531 Z M 48.828125 -52.269531 "/></g></g></g><g fill="#ffffff" fill-opacity="0.4"><g transform="translate(65.647939, 230.412803)"><g><path d="M 30.417969 -11.925781 L 12.246094 -11.925781 L 12.246094 -26.335938 L 37.382812 -26.335938 C 37.863281 -26.335938 38.261719 -26.734375 38.261719 -27.054688 L 38.261719 -37.222656 C 38.261719 -37.621094 37.863281 -37.941406 37.382812 -37.941406 L 12.246094 -37.941406 L 12.246094 -52.429688 L 30.417969 -52.429688 L 30.417969 -64.039062 L 0.878906 -64.039062 C 0.398438 -64.039062 0 -63.636719 0 -63.316406 L 0 -0.71875 C 0 -0.398438 0.398438 0 0.878906 0 L 30.417969 0 Z M 30.417969 -11.925781 "/></g></g></g><g fill="#ffffff" fill-opacity="0.4"><g transform="translate(105.827559, 230.412803)"><g><path d="M 30.417969 -11.925781 L 12.246094 -11.925781 L 12.246094 -26.335938 L 37.382812 -26.335938 C 37.863281 -26.335938 38.261719 -26.734375 38.261719 -27.054688 L 38.261719 -37.222656 C 38.261719 -37.621094 37.863281 -37.941406 37.382812 -37.941406 L 12.246094 -37.941406 L 12.246094 -52.429688 L 30.417969 -52.429688 L 30.417969 -64.039062 L 0.878906 -64.039062 C 0.398438 -64.039062 0 -63.636719 0 -63.316406 L 0 -0.71875 C 0 -0.398438 0.398438 0 0.878906 0 L 30.417969 0 Z M 30.417969 -11.925781 "/></g></g></g><g fill="#ffffff" fill-opacity="0.4"><g transform="translate(146.007179, 230.412803)"><g><path d="M 51.070312 -1.199219 L 25.375 -31.457031 L 50.832031 -62.835938 C 51.390625 -63.398438 50.992188 -64.039062 50.109375 -64.039062 L 37.0625 -64.039062 C 36.902344 -64.039062 36.421875 -63.878906 36.339844 -63.796875 L 12.246094 -34.179688 L 12.246094 -63.316406 C 12.246094 -63.636719 11.925781 -64.039062 11.445312 -64.039062 L 0.878906 -64.039062 C 0.398438 -64.039062 0 -63.636719 0 -63.316406 L 0 -3.921875 C 0 -3.921875 15.609375 -21.613281 17.210938 -23.292969 L 35.859375 -0.238281 C 35.941406 -0.160156 36.421875 0 36.582031 0 L 50.351562 0 C 51.148438 0 51.550781 -0.558594 51.070312 -1.199219 Z M 51.070312 -1.199219 "/></g></g></g><g fill="#ffffff" fill-opacity="0.4"><g transform="translate(199.873475, 230.412803)"><g/></g></g><g fill="#ffffff" fill-opacity="0.4"><g transform="translate(219.883251, 230.412803)"><g><path d="M 34.582031 -11.925781 L 0 -11.925781 L 0 -0.71875 C 0 -0.398438 0.398438 0 0.878906 0 L 34.582031 0 C 35.140625 0 35.460938 -0.398438 35.460938 -0.71875 L 35.460938 -11.125 C 35.460938 -11.527344 35.140625 -11.925781 34.582031 -11.925781 Z M 12.246094 -24.175781 L 12.246094 -63.316406 C 12.246094 -63.636719 11.925781 -64.039062 11.445312 -64.039062 L 0.878906 -64.039062 C 0.398438 -64.039062 0 -63.636719 0 -63.316406 L 0 -24.175781 Z M 12.246094 -24.175781 "/></g></g></g><g fill="#ffffff" fill-opacity="0.4"><g transform="translate(257.181466, 230.412803)"><g><path d="M 26.09375 -10.964844 L 19.691406 -10.964844 L 19.691406 -64.039062 L 7.445312 -64.039062 L 7.445312 -10.964844 L 0.878906 -10.964844 C 0.398438 -10.964844 0 -10.644531 0 -10.246094 L 0 -0.71875 C 0 -0.398438 0.398438 0 0.878906 0 L 26.09375 0 C 26.65625 0 26.976562 -0.398438 26.976562 -0.71875 L 26.976562 -10.246094 C 26.976562 -10.644531 26.65625 -10.964844 26.09375 -10.964844 Z M 26.09375 -10.964844 "/></g></g></g><g fill="#ffffff" fill-opacity="0.4"><g transform="translate(285.515296, 230.412803)"><g><path d="M 29.378906 -35.542969 C 24.816406 -37.703125 20.332031 -37.703125 19.933594 -37.703125 C 15.847656 -37.703125 11.925781 -40.105469 11.925781 -44.746094 C 11.925781 -49.871094 15.527344 -52.511719 19.933594 -52.511719 C 24.09375 -52.511719 27.617188 -50.351562 27.777344 -45.789062 C 27.777344 -45.546875 28.175781 -45.148438 28.65625 -45.148438 L 38.664062 -45.148438 C 39.222656 -45.148438 39.625 -45.546875 39.542969 -45.789062 C 39.382812 -56.671875 30.898438 -64.039062 19.933594 -64.039062 C 9.6875 -64.039062 0 -56.753906 0 -44.746094 C 0 -37.300781 3.761719 -31.617188 10.40625 -28.578125 C 15.050781 -26.414062 19.371094 -26.414062 19.933594 -26.414062 C 23.535156 -26.253906 27.9375 -23.375 27.9375 -18.652344 C 27.9375 -14.410156 24.175781 -11.527344 19.933594 -11.527344 C 19.933594 -11.527344 19.933594 -11.527344 19.851562 -11.527344 L 19.851562 0 C 19.933594 0 19.933594 0 19.933594 0 C 30.179688 0 39.785156 -6.644531 39.785156 -18.652344 C 39.785156 -26.175781 36.101562 -32.417969 29.378906 -35.542969 Z M 29.378906 -35.542969 "/></g></g></g><g fill="#ffffff" fill-opacity="0.4"><g transform="translate(327.295703, 230.412803)"><g><path d="M 13.207031 -40.824219 L 13.207031 -0.71875 C 13.207031 -0.398438 13.527344 0 14.089844 0 L 24.414062 0 C 24.976562 0 25.375 -0.398438 25.375 -0.71875 L 25.375 -40.824219 Z M 0.878906 -53.070312 L 37.621094 -53.070312 C 38.183594 -53.070312 38.503906 -53.390625 38.503906 -53.792969 L 38.503906 -63.316406 C 38.503906 -63.636719 38.183594 -64.039062 37.621094 -64.039062 L 0.878906 -64.039062 C 0.398438 -64.039062 0 -63.636719 0 -63.316406 L 0 -53.792969 C 0 -53.390625 0.398438 -53.070312 0.878906 -53.070312 Z M 0.878906 -53.070312 "/></g></g></g><g fill="#ffffff" fill-opacity="1"><g transform="translate(10.805078, 226.874985)"><g><path d="M 48.828125 -52.269531 L 48.828125 -63.316406 C 48.828125 -63.636719 48.507812 -64.039062 47.949219 -64.039062 L 37.542969 -64.039062 C 21.613281 -64.039062 0 -59.394531 0 -32.019531 C 0 -3.601562 21.851562 0 37.542969 0 L 47.949219 0 C 48.507812 0 48.828125 -0.398438 48.828125 -0.71875 L 48.828125 -39.945312 L 24.253906 -39.945312 L 24.253906 -27.695312 L 36.582031 -27.695312 L 36.582031 -11.6875 C 22.652344 -10.964844 12.328125 -16.808594 12.328125 -32.019531 C 12.328125 -51.789062 28.816406 -52.589844 36.582031 -52.269531 Z M 48.828125 -52.269531 "/></g></g></g><g fill="#ffffff" fill-opacity="1"><g transform="translate(62.110128, 226.874985)"><g><path d="M 30.417969 -11.925781 L 12.246094 -11.925781 L 12.246094 -26.335938 L 37.382812 -26.335938 C 37.863281 -26.335938 38.261719 -26.734375 38.261719 -27.054688 L 38.261719 -37.222656 C 38.261719 -37.621094 37.863281 -37.941406 37.382812 -37.941406 L 12.246094 -37.941406 L 12.246094 -52.429688 L 30.417969 -52.429688 L 30.417969 -64.039062 L 0.878906 -64.039062 C 0.398438 -64.039062 0 -63.636719 0 -63.316406 L 0 -0.71875 C 0 -0.398438 0.398438 0 0.878906 0 L 30.417969 0 Z M 30.417969 -11.925781 "/></g></g></g><g fill="#ffffff" fill-opacity="1"><g transform="translate(102.289748, 226.874985)"><g><path d="M 30.417969 -11.925781 L 12.246094 -11.925781 L 12.246094 -26.335938 L 37.382812 -26.335938 C 37.863281 -26.335938 38.261719 -26.734375 38.261719 -27.054688 L 38.261719 -37.222656 C 38.261719 -37.621094 37.863281 -37.941406 37.382812 -37.941406 L 12.246094 -37.941406 L 12.246094 -52.429688 L 30.417969 -52.429688 L 30.417969 -64.039062 L 0.878906 -64.039062 C 0.398438 -64.039062 0 -63.636719 0 -63.316406 L 0 -0.71875 C 0 -0.398438 0.398438 0 0.878906 0 L 30.417969 0 Z M 30.417969 -11.925781 "/></g></g></g><g fill="#ffffff" fill-opacity="1"><g transform="translate(142.469368, 226.874985)"><g><path d="M 51.070312 -1.199219 L 25.375 -31.457031 L 50.832031 -62.835938 C 51.390625 -63.398438 50.992188 -64.039062 50.109375 -64.039062 L 37.0625 -64.039062 C 36.902344 -64.039062 36.421875 -63.878906 36.339844 -63.796875 L 12.246094 -34.179688 L 12.246094 -63.316406 C 12.246094 -63.636719 11.925781 -64.039062 11.445312 -64.039062 L 0.878906 -64.039062 C 0.398438 -64.039062 0 -63.636719 0 -63.316406 L 0 -3.921875 C 0 -3.921875 15.609375 -21.613281 17.210938 -23.292969 L 35.859375 -0.238281 C 35.941406 -0.160156 36.421875 0 36.582031 0 L 50.351562 0 C 51.148438 0 51.550781 -0.558594 51.070312 -1.199219 Z M 51.070312 -1.199219 "/></g></g></g><g fill="#ffffff" fill-opacity="1"><g transform="translate(196.335663, 226.874985)"><g/></g></g><g fill="#ffffff" fill-opacity="1"><g transform="translate(216.345439, 226.874985)"><g><path d="M 34.582031 -11.925781 L 0 -11.925781 L 0 -0.71875 C 0 -0.398438 0.398438 0 0.878906 0 L 34.582031 0 C 35.140625 0 35.460938 -0.398438 35.460938 -0.71875 L 35.460938 -11.125 C 35.460938 -11.527344 35.140625 -11.925781 34.582031 -11.925781 Z M 12.246094 -24.175781 L 12.246094 -63.316406 C 12.246094 -63.636719 11.925781 -64.039062 11.445312 -64.039062 L 0.878906 -64.039062 C 0.398438 -64.039062 0 -63.636719 0 -63.316406 L 0 -24.175781 Z M 12.246094 -24.175781 "/></g></g></g><g fill="#ffffff" fill-opacity="1"><g transform="translate(253.643654, 226.874985)"><g><path d="M 26.09375 -10.964844 L 19.691406 -10.964844 L 19.691406 -64.039062 L 7.445312 -64.039062 L 7.445312 -10.964844 L 0.878906 -10.964844 C 0.398438 -10.964844 0 -10.644531 0 -10.246094 L 0 -0.71875 C 0 -0.398438 0.398438 0 0.878906 0 L 26.09375 0 C 26.65625 0 26.976562 -0.398438 26.976562 -0.71875 L 26.976562 -10.246094 C 26.976562 -10.644531 26.65625 -10.964844 26.09375 -10.964844 Z M 26.09375 -10.964844 "/></g></g></g><g fill="#ffffff" fill-opacity="1"><g transform="translate(281.977484, 226.874985)"><g><path d="M 29.378906 -35.542969 C 24.816406 -37.703125 20.332031 -37.703125 19.933594 -37.703125 C 15.847656 -37.703125 11.925781 -40.105469 11.925781 -44.746094 C 11.925781 -49.871094 15.527344 -52.511719 19.933594 -52.511719 C 24.09375 -52.511719 27.617188 -50.351562 27.777344 -45.789062 C 27.777344 -45.546875 28.175781 -45.148438 28.65625 -45.148438 L 38.664062 -45.148438 C 39.222656 -45.148438 39.625 -45.546875 39.542969 -45.789062 C 39.382812 -56.671875 30.898438 -64.039062 19.933594 -64.039062 C 9.6875 -64.039062 0 -56.753906 0 -44.746094 C 0 -37.300781 3.761719 -31.617188 10.40625 -28.578125 C 15.050781 -26.414062 19.371094 -26.414062 19.933594 -26.414062 C 23.535156 -26.253906 27.9375 -23.375 27.9375 -18.652344 C 27.9375 -14.410156 24.175781 -11.527344 19.933594 -11.527344 C 19.933594 -11.527344 19.933594 -11.527344 19.851562 -11.527344 L 19.851562 0 C 19.933594 0 19.933594 0 19.933594 0 C 30.179688 0 39.785156 -6.644531 39.785156 -18.652344 C 39.785156 -26.175781 36.101562 -32.417969 29.378906 -35.542969 Z M 29.378906 -35.542969 "/></g></g></g><g fill="#ffffff" fill-opacity="1"><g transform="translate(323.757892, 226.874985)"><g><path d="M 13.207031 -40.824219 L 13.207031 -0.71875 C 13.207031 -0.398438 13.527344 0 14.089844 0 L 24.414062 0 C 24.976562 0 25.375 -0.398438 25.375 -0.71875 L 25.375 -40.824219 Z M 0.878906 -53.070312 L 37.621094 -53.070312 C 38.183594 -53.070312 38.503906 -53.390625 38.503906 -53.792969 L 38.503906 -63.316406 C 38.503906 -63.636719 38.183594 -64.039062 37.621094 -64.039062 L 0.878906 -64.039062 C 0.398438 -64.039062 0 -63.636719 0 -63.316406 L 0 -53.792969 C 0 -53.390625 0.398438 -53.070312 0.878906 -53.070312 Z M 0.878906 -53.070312 "/></g></g></g></svg>